<svg id="Layer_1" xmlns="http://www.w3.org/2000/svg" version="1.1" viewBox="0 0 24 24">
  <!-- Generator: Adobe Illustrator 29.0.0, SVG Export Plug-In . SVG Version: 2.1.0 Build 186)  -->
  <defs fill="#ffffff">
    <style>
      .st0 {
        fill: #fff;
      }
    </style>
  </defs>
  <path class="st0" d="M21.6,7.2c-.2-.9-.9-1.5-1.8-1.8-1.5-.4-7.8-.4-7.8-.4,0,0-6.3,0-7.8.4-.9.2-1.5.9-1.8,1.8-.4,1.6-.4,4.8-.4,4.8,0,0,0,3.3.4,4.8.2.9.9,1.5,1.8,1.8,1.5.4,7.8.4,7.8.4,0,0,6.3,0,7.8-.4.9-.2,1.5-.9,1.8-1.8.4-1.5.4-4.8.4-4.8,0,0,0-3.2-.4-4.8ZM10,15v-6l5.2,3-5.2,3Z" fill="#ffffff"/>
  <path class="st0" d="M21.6,7.2c-.2-.9-.9-1.5-1.8-1.8-1.5-.4-7.8-.4-7.8-.4,0,0-6.3,0-7.8.4-.9.2-1.5.9-1.8,1.8-.4,1.6-.4,4.8-.4,4.8,0,0,0,3.3.4,4.8.2.9.9,1.5,1.8,1.8,1.5.4,7.8.4,7.8.4,0,0,6.3,0,7.8-.4.9-.2,1.5-.9,1.8-1.8.4-1.5.4-4.8.4-4.8,0,0,0-3.2-.4-4.8ZM10,15v-6l5.2,3-5.2,3Z" fill="#ffffff"/>
</svg>